<svg xmlns="http://www.w3.org/2000/svg" width="1366" height="480"><path d="M135,-140L222,-128L441,-121Z" fill="#b74f45" stroke="#b74f45" stroke-width="1.51"/><path d="M135,-140L441,-121L695,-134Z" fill="#c16b5f" stroke="#c16b5f" stroke-width="1.51"/><path d="M135,-140L695,-134L851,-144Z" fill="#c37c76" stroke="#c37c76" stroke-width="1.51"/><path d="M-14,-146L135,-140L851,-144Z" fill="#b5584d" stroke="#b5584d" stroke-width="1.51"/><path d="M976,615L798,633L1059,621Z" fill="#747474" stroke="#747474" stroke-width="1.51"/><path d="M1059,621L798,633L1104,627Z" fill="#6e6e6e" stroke="#6e6e6e" stroke-width="1.51"/><path d="M851,-144L1025,-108L1214,-141Z" fill="#a76a69" stroke="#a76a69" stroke-width="1.51"/><path d="M851,-144L1214,-141L1329,-143Z" fill="#92595a" stroke="#92595a" stroke-width="1.51"/><path d="M1201,591L1104,627L1406,618Z" fill="#525252" stroke="#525252" stroke-width="1.51"/><path d="M-14,-146L851,-144L1489,-144Z" fill="#bb7f80" stroke="#bb7f80" stroke-width="1.51"/><path d="M851,-144L1329,-143L1489,-144Z" fill="#824c4d" stroke="#824c4d" stroke-width="1.51"/><path d="M1329,-143L1388,-123L1489,-144Z" fill="#653032" stroke="#653032" stroke-width="1.51"/><path d="M1458,247L1488,352L1495,168Z" fill="#8a8a8a" stroke="#8a8a8a" stroke-width="1.51"/><path d="M1429,433L1493,502L1501,399Z" fill="#626262" stroke="#626262" stroke-width="1.51"/><path d="M1495,168L1488,352L1501,399Z" fill="#7f7f7f" stroke="#7f7f7f" stroke-width="1.51"/><path d="M1417,51L1470,85L1506,-16Z" fill="#87594b" stroke="#87594b" stroke-width="1.51"/><path d="M1416,4L1417,51L1506,-16Z" fill="#865245" stroke="#865245" stroke-width="1.51"/><path d="M1489,-144L1388,-123L1506,-16Z" fill="#6e2e2d" stroke="#6e2e2d" stroke-width="1.51"/><path d="M1388,-123L1416,4L1506,-16Z" fill="#7e4039" stroke="#7e4039" stroke-width="1.51"/><path d="M1470,85L1495,168L1506,-16Z" fill="#876353" stroke="#876353" stroke-width="1.51"/><path d="M1495,168L1501,399L1506,-16Z" fill="#897e78" stroke="#897e78" stroke-width="1.51"/><path d="M1493,502L1406,618L1520,615Z" fill="#373737" stroke="#373737" stroke-width="1.51"/><path d="M1501,399L1493,502L1520,615Z" fill="#4b4b4b" stroke="#4b4b4b" stroke-width="1.51"/><path d="M1506,-16L1501,399L1520,615Z" fill="#777777" stroke="#777777" stroke-width="1.51"/><path d="M1382,505L1406,618L1493,502Z" fill="#4b4b4b" stroke="#4b4b4b" stroke-width="1.51"/><path d="M1458,247L1384,340L1488,352Z" fill="#878787" stroke="#878787" stroke-width="1.51"/><path d="M1488,352L1429,433L1501,399Z" fill="#707070" stroke="#707070" stroke-width="1.51"/><path d="M1470,85L1369,184L1495,168Z" fill="#937f75" stroke="#937f75" stroke-width="1.51"/><path d="M1369,184L1458,247L1495,168Z" fill="#948c87" stroke="#948c87" stroke-width="1.51"/><path d="M1429,433L1382,505L1493,502Z" fill="#5f5f5f" stroke="#5f5f5f" stroke-width="1.51"/><path d="M1384,340L1429,433L1488,352Z" fill="#7c7c7c" stroke="#7c7c7c" stroke-width="1.51"/><path d="M1370,256L1384,340L1458,247Z" fill="#939393" stroke="#939393" stroke-width="1.51"/><path d="M1417,51L1369,184L1470,85Z" fill="#96786a" stroke="#96786a" stroke-width="1.51"/><path d="M1382,505L1345,574L1406,618Z" fill="#4b4b4b" stroke="#4b4b4b" stroke-width="1.51"/><path d="M1369,184L1370,256L1458,247Z" fill="#9c9998" stroke="#9c9998" stroke-width="1.51"/><path d="M1305,446L1339,500L1382,505Z" fill="#6d6d6d" stroke="#6d6d6d" stroke-width="1.51"/><path d="M1345,574L1201,591L1406,618Z" fill="#4b4b4b" stroke="#4b4b4b" stroke-width="1.51"/><path d="M1388,-123L1288,1L1416,4Z" fill="#8d4e46" stroke="#8d4e46" stroke-width="1.51"/><path d="M1333,171L1369,184L1417,51Z" fill="#9f887d" stroke="#9f887d" stroke-width="1.51"/><path d="M1306,37L1333,171L1417,51Z" fill="#a27d6d" stroke="#a27d6d" stroke-width="1.51"/><path d="M1305,446L1382,505L1429,433Z" fill="#6e6e6e" stroke="#6e6e6e" stroke-width="1.51"/><path d="M1384,340L1324,355L1429,433Z" fill="#858585" stroke="#858585" stroke-width="1.51"/><path d="M1324,355L1305,446L1429,433Z" fill="#818181" stroke="#818181" stroke-width="1.51"/><path d="M1288,1L1306,37L1416,4Z" fill="#9b6558" stroke="#9b6558" stroke-width="1.51"/><path d="M1416,4L1306,37L1417,51Z" fill="#956456" stroke="#956456" stroke-width="1.51"/><path d="M1329,-143L1288,1L1388,-123Z" fill="#884340" stroke="#884340" stroke-width="1.51"/><path d="M1369,184L1321,213L1370,256Z" fill="#a49f9c" stroke="#a49f9c" stroke-width="1.51"/><path d="M1339,500L1345,574L1382,505Z" fill="#5c5c5c" stroke="#5c5c5c" stroke-width="1.51"/><path d="M1370,256L1324,355L1384,340Z" fill="#959595" stroke="#959595" stroke-width="1.51"/><path d="M1333,171L1321,213L1369,184Z" fill="#a69b96" stroke="#a69b96" stroke-width="1.51"/><path d="M1249,299L1324,355L1370,256Z" fill="#a0a0a0" stroke="#a0a0a0" stroke-width="1.51"/><path d="M1321,213L1249,299L1370,256Z" fill="#a9a9a9" stroke="#a9a9a9" stroke-width="1.51"/><path d="M1221,-50L1288,1L1329,-143Z" fill="#98544e" stroke="#98544e" stroke-width="1.51"/><path d="M1306,37L1224,157L1333,171Z" fill="#af9386" stroke="#af9386" stroke-width="1.51"/><path d="M1201,485L1201,591L1339,500Z" fill="#6e6e6e" stroke="#6e6e6e" stroke-width="1.51"/><path d="M1339,500L1201,591L1345,574Z" fill="#5c5c5c" stroke="#5c5c5c" stroke-width="1.51"/><path d="M1214,-141L1221,-50L1329,-143Z" fill="#8c4c4b" stroke="#8c4c4b" stroke-width="1.51"/><path d="M1305,446L1239,447L1339,500Z" fill="#7b7b7b" stroke="#7b7b7b" stroke-width="1.51"/><path d="M1239,447L1201,485L1339,500Z" fill="#7d7d7d" stroke="#7d7d7d" stroke-width="1.51"/><path d="M1213,39L1224,157L1306,37Z" fill="#b58d7c" stroke="#b58d7c" stroke-width="1.51"/><path d="M1239,447L1305,446L1324,355Z" fill="#8b8b8b" stroke="#8b8b8b" stroke-width="1.51"/><path d="M1224,157L1321,213L1333,171Z" fill="#afa39c" stroke="#afa39c" stroke-width="1.51"/><path d="M1199,228L1249,299L1321,213Z" fill="#b5b5b5" stroke="#b5b5b5" stroke-width="1.51"/><path d="M1249,299L1239,447L1324,355Z" fill="#9a9a9a" stroke="#9a9a9a" stroke-width="1.51"/><path d="M1224,157L1199,228L1321,213Z" fill="#b8afaa" stroke="#b8afaa" stroke-width="1.51"/><path d="M1288,1L1213,39L1306,37Z" fill="#aa7567" stroke="#aa7567" stroke-width="1.51"/><path d="M1221,-50L1213,39L1288,1Z" fill="#ab6e62" stroke="#ab6e62" stroke-width="1.51"/><path d="M1214,-141L1166,-102L1221,-50Z" fill="#9d5855" stroke="#9d5855" stroke-width="1.51"/><path d="M1115,317L1108,440L1239,447Z" fill="#a6a6a6" stroke="#a6a6a6" stroke-width="1.51"/><path d="M1115,317L1239,447L1249,299Z" fill="#aaaaaa" stroke="#aaaaaa" stroke-width="1.51"/><path d="M1199,228L1115,317L1249,299Z" fill="#bbbbbb" stroke="#bbbbbb" stroke-width="1.51"/><path d="M1025,-108L1166,-102L1214,-141Z" fill="#9e5e5c" stroke="#9e5e5c" stroke-width="1.51"/><path d="M1167,-53L1213,39L1221,-50Z" fill="#af6f65" stroke="#af6f65" stroke-width="1.51"/><path d="M1213,39L1133,29L1224,157Z" fill="#c09685" stroke="#c09685" stroke-width="1.51"/><path d="M1108,440L1201,485L1239,447Z" fill="#919191" stroke="#919191" stroke-width="1.51"/><path d="M1201,485L1127,541L1201,591Z" fill="#757575" stroke="#757575" stroke-width="1.51"/><path d="M1167,-53L1133,29L1213,39Z" fill="#b87d70" stroke="#b87d70" stroke-width="1.51"/><path d="M1166,-102L1167,-53L1221,-50Z" fill="#a9625c" stroke="#a9625c" stroke-width="1.51"/><path d="M1102,179L1199,228L1224,157Z" fill="#c4b9b3" stroke="#c4b9b3" stroke-width="1.51"/><path d="M1133,29L1102,179L1224,157Z" fill="#c7ab9e" stroke="#c7ab9e" stroke-width="1.51"/><path d="M1111,236L1115,317L1199,228Z" fill="#c6c6c6" stroke="#c6c6c6" stroke-width="1.51"/><path d="M1053,115L1102,179L1133,29Z" fill="#cfafa0" stroke="#cfafa0" stroke-width="1.51"/><path d="M1102,179L1111,236L1199,228Z" fill="#cac5c2" stroke="#cac5c2" stroke-width="1.51"/><path d="M1108,440L1127,541L1201,485Z" fill="#8c8c8c" stroke="#8c8c8c" stroke-width="1.51"/><path d="M1127,541L1104,627L1201,591Z" fill="#686868" stroke="#686868" stroke-width="1.51"/><path d="M1060,419L1108,440L1115,317Z" fill="#b2b2b2" stroke="#b2b2b2" stroke-width="1.51"/><path d="M1108,440L1073,504L1127,541Z" fill="#909090" stroke="#909090" stroke-width="1.51"/><path d="M1025,-108L1068,-55L1166,-102Z" fill="#b46a65" stroke="#b46a65" stroke-width="1.51"/><path d="M1166,-102L1068,-55L1167,-53Z" fill="#b16963" stroke="#b16963" stroke-width="1.51"/><path d="M1068,-55L1133,29L1167,-53Z" fill="#bb7a6f" stroke="#bb7a6f" stroke-width="1.51"/><path d="M441,-121L508,-114L695,-134Z" fill="#cb7e76" stroke="#cb7e76" stroke-width="1.51"/><path d="M1042,334L1060,419L1115,317Z" fill="#bdbdbd" stroke="#bdbdbd" stroke-width="1.51"/><path d="M1059,621L1104,627L1127,541Z" fill="#6c6c6c" stroke="#6c6c6c" stroke-width="1.51"/><path d="M1068,-55L1030,84L1133,29Z" fill="#ca9182" stroke="#ca9182" stroke-width="1.51"/><path d="M1030,84L1053,115L1133,29Z" fill="#d2a897" stroke="#d2a897" stroke-width="1.51"/><path d="M1111,236L1042,334L1115,317Z" fill="#c7c7c7" stroke="#c7c7c7" stroke-width="1.51"/><path d="M1073,504L1059,621L1127,541Z" fill="#7c7c7c" stroke="#7c7c7c" stroke-width="1.51"/><path d="M1102,179L1017,231L1111,236Z" fill="#d4cecb" stroke="#d4cecb" stroke-width="1.51"/><path d="M1017,231L1042,334L1111,236Z" fill="#d2d2d2" stroke="#d2d2d2" stroke-width="1.51"/><path d="M1060,419L1073,504L1108,440Z" fill="#a1a1a1" stroke="#a1a1a1" stroke-width="1.51"/><path d="M969,37L1030,84L1068,-55Z" fill="#d39a8b" stroke="#d39a8b" stroke-width="1.51"/><path d="M1053,115L1017,231L1102,179Z" fill="#d7c9c1" stroke="#d7c9c1" stroke-width="1.51"/><path d="M851,-144L960,-89L1025,-108Z" fill="#ba7674" stroke="#ba7674" stroke-width="1.51"/><path d="M975,513L976,615L1059,621Z" fill="#7d7d7d" stroke="#7d7d7d" stroke-width="1.51"/><path d="M972,414L975,513L1060,419Z" fill="#adadad" stroke="#adadad" stroke-width="1.51"/><path d="M938,-46L969,37L1068,-55Z" fill="#cf8c81" stroke="#cf8c81" stroke-width="1.51"/><path d="M1060,419L975,513L1073,504Z" fill="#a0a0a0" stroke="#a0a0a0" stroke-width="1.51"/><path d="M975,513L1059,621L1073,504Z" fill="#868686" stroke="#868686" stroke-width="1.51"/><path d="M926,150L1017,231L1053,115Z" fill="#dfcfc6" stroke="#dfcfc6" stroke-width="1.51"/><path d="M1042,334L972,414L1060,419Z" fill="#bdbdbd" stroke="#bdbdbd" stroke-width="1.51"/><path d="M1025,-108L960,-89L1068,-55Z" fill="#c17570" stroke="#c17570" stroke-width="1.51"/><path d="M960,-89L938,-46L1068,-55Z" fill="#c87f77" stroke="#c87f77" stroke-width="1.51"/><path d="M1017,231L957,308L1042,334Z" fill="#d4d4d4" stroke="#d4d4d4" stroke-width="1.51"/><path d="M926,150L972,234L1017,231Z" fill="#e2dad6" stroke="#e2dad6" stroke-width="1.51"/><path d="M1030,84L926,150L1053,115Z" fill="#debfb1" stroke="#debfb1" stroke-width="1.51"/><path d="M864,598L798,633L976,615Z" fill="#7d7d7d" stroke="#7d7d7d" stroke-width="1.51"/><path d="M972,234L957,308L1017,231Z" fill="#dddddd" stroke="#dddddd" stroke-width="1.51"/><path d="M957,308L972,414L1042,334Z" fill="#c9c9c9" stroke="#c9c9c9" stroke-width="1.51"/><path d="M969,37L926,150L1030,84Z" fill="#e0b9a8" stroke="#e0b9a8" stroke-width="1.51"/><path d="M884,67L926,150L969,37Z" fill="#e6bdac" stroke="#e6bdac" stroke-width="1.51"/><path d="M926,150L885,174L972,234Z" fill="#e7dbd4" stroke="#e7dbd4" stroke-width="1.51"/><path d="M883,305L957,308L972,234Z" fill="#dedede" stroke="#dedede" stroke-width="1.51"/><path d="M957,308L883,305L972,414Z" fill="#d1d1d1" stroke="#d1d1d1" stroke-width="1.51"/><path d="M883,305L840,419L972,414Z" fill="#cdcdcd" stroke="#cdcdcd" stroke-width="1.51"/><path d="M972,414L892,496L975,513Z" fill="#ababab" stroke="#ababab" stroke-width="1.51"/><path d="M892,496L864,598L975,513Z" fill="#989898" stroke="#989898" stroke-width="1.51"/><path d="M975,513L864,598L976,615Z" fill="#868686" stroke="#868686" stroke-width="1.51"/><path d="M854,-18L884,67L938,-46Z" fill="#df9f91" stroke="#df9f91" stroke-width="1.51"/><path d="M938,-46L884,67L969,37Z" fill="#dda394" stroke="#dda394" stroke-width="1.51"/><path d="M885,174L883,305L972,234Z" fill="#e9e8e8" stroke="#e9e8e8" stroke-width="1.51"/><path d="M840,419L892,496L972,414Z" fill="#bababa" stroke="#bababa" stroke-width="1.51"/><path d="M829,227L883,305L885,174Z" fill="#eeedec" stroke="#eeedec" stroke-width="1.51"/><path d="M851,-144L938,-46L960,-89Z" fill="#c87d79" stroke="#c87d79" stroke-width="1.51"/><path d="M851,-144L854,-18L938,-46Z" fill="#d48881" stroke="#d48881" stroke-width="1.51"/><path d="M884,67L885,174L926,150Z" fill="#eacfc2" stroke="#eacfc2" stroke-width="1.51"/><path d="M851,-144L786,-92L854,-18Z" fill="#d58782" stroke="#d58782" stroke-width="1.51"/><path d="M790,405L840,419L883,305Z" fill="#d4d4d4" stroke="#d4d4d4" stroke-width="1.51"/><path d="M757,364L790,405L883,305Z" fill="#dbdbdb" stroke="#dbdbdb" stroke-width="1.51"/><path d="M854,-18L787,54L884,67Z" fill="#e9b1a2" stroke="#e9b1a2" stroke-width="1.51"/><path d="M787,54L794,166L884,67Z" fill="#f1ccbb" stroke="#f1ccbb" stroke-width="1.51"/><path d="M884,67L794,166L885,174Z" fill="#efd6c9" stroke="#efd6c9" stroke-width="1.51"/><path d="M800,541L864,598L892,496Z" fill="#9a9a9a" stroke="#9a9a9a" stroke-width="1.51"/><path d="M840,419L800,541L892,496Z" fill="#b2b2b2" stroke="#b2b2b2" stroke-width="1.51"/><path d="M794,166L829,227L885,174Z" fill="#f1e6e0" stroke="#f1e6e0" stroke-width="1.51"/><path d="M829,227L757,364L883,305Z" fill="#e7e7e7" stroke="#e7e7e7" stroke-width="1.51"/><path d="M790,405L800,541L840,419Z" fill="#bfbfbf" stroke="#bfbfbf" stroke-width="1.51"/><path d="M800,541L798,633L864,598Z" fill="#8c8c8c" stroke="#8c8c8c" stroke-width="1.51"/><path d="M756,220L757,364L829,227Z" fill="#f0f0f0" stroke="#f0f0f0" stroke-width="1.51"/><path d="M695,-134L786,-92L851,-144Z" fill="#c68482" stroke="#c68482" stroke-width="1.51"/><path d="M759,-3L787,54L854,-18Z" fill="#eaac9d" stroke="#eaac9d" stroke-width="1.51"/><path d="M786,-92L759,-3L854,-18Z" fill="#e29a90" stroke="#e29a90" stroke-width="1.51"/><path d="M596,618L531,634L703,633Z" fill="#89827e" stroke="#89827e" stroke-width="1.51"/><path d="M790,405L690,495L800,541Z" fill="#bcbcbc" stroke="#bcbcbc" stroke-width="1.51"/><path d="M794,166L756,220L829,227Z" fill="#f5ede9" stroke="#f5ede9" stroke-width="1.51"/><path d="M756,220L682,272L757,364Z" fill="#f2f2f2" stroke="#f2f2f2" stroke-width="1.51"/><path d="M682,272L703,351L757,364Z" fill="#eaeaea" stroke="#eaeaea" stroke-width="1.51"/><path d="M712,-63L759,-3L786,-92Z" fill="#e39990" stroke="#e39990" stroke-width="1.51"/><path d="M665,447L690,495L790,405Z" fill="#c9c9c9" stroke="#c9c9c9" stroke-width="1.51"/><path d="M787,54L703,122L794,166Z" fill="#f7d7c8" stroke="#f7d7c8" stroke-width="1.51"/><path d="M703,633L798,633L800,541Z" fill="#8c8c8c" stroke="#8c8c8c" stroke-width="1.51"/><path d="M690,495L703,633L800,541Z" fill="#a0a0a0" stroke="#a0a0a0" stroke-width="1.51"/><path d="M703,122L756,220L794,166Z" fill="#f9e9e0" stroke="#f9e9e0" stroke-width="1.51"/><path d="M757,364L665,447L790,405Z" fill="#d6d6d6" stroke="#d6d6d6" stroke-width="1.51"/><path d="M695,-134L712,-63L786,-92Z" fill="#d98d88" stroke="#d98d88" stroke-width="1.51"/><path d="M759,-3L671,82L787,54Z" fill="#f4bfae" stroke="#f4bfae" stroke-width="1.51"/><path d="M671,82L703,122L787,54Z" fill="#fad1bf" stroke="#fad1bf" stroke-width="1.51"/><path d="M703,122L682,272L756,220Z" fill="#fcf4ef" stroke="#fcf4ef" stroke-width="1.51"/><path d="M703,351L665,447L757,364Z" fill="#dddddd" stroke="#dddddd" stroke-width="1.51"/><path d="M712,-63L671,82L759,-3Z" fill="#f1b0a2" stroke="#f1b0a2" stroke-width="1.51"/><path d="M578,-42L598,81L671,82Z" fill="#f7bba7" stroke="#f7bba7" stroke-width="1.51"/><path d="M582,496L596,618L690,495Z" fill="#aca6a3" stroke="#aca6a3" stroke-width="1.51"/><path d="M508,-114L582,-86L695,-134Z" fill="#d3857e" stroke="#d3857e" stroke-width="1.51"/><path d="M682,272L619,327L703,351Z" fill="#f0efee" stroke="#f0efee" stroke-width="1.51"/><path d="M619,327L665,447L703,351Z" fill="#e3e1df" stroke="#e3e1df" stroke-width="1.51"/><path d="M690,495L596,618L703,633Z" fill="#9a9997" stroke="#9a9997" stroke-width="1.51"/><path d="M562,171L585,238L703,122Z" fill="#ffeade" stroke="#ffeade" stroke-width="1.51"/><path d="M585,238L682,272L703,122Z" fill="#fff5f0" stroke="#fff5f0" stroke-width="1.51"/><path d="M578,-42L671,82L712,-63Z" fill="#f1ac9c" stroke="#f1ac9c" stroke-width="1.51"/><path d="M695,-134L582,-86L712,-63Z" fill="#de908a" stroke="#de908a" stroke-width="1.51"/><path d="M582,-86L578,-42L712,-63Z" fill="#e6958a" stroke="#e6958a" stroke-width="1.51"/><path d="M671,82L598,81L703,122Z" fill="#fed5c2" stroke="#fed5c2" stroke-width="1.51"/><path d="M598,81L562,171L703,122Z" fill="#fedbc9" stroke="#fedbc9" stroke-width="1.51"/><path d="M619,327L583,440L665,447Z" fill="#dbd5d1" stroke="#dbd5d1" stroke-width="1.51"/><path d="M665,447L582,496L690,495Z" fill="#c2bfbd" stroke="#c2bfbd" stroke-width="1.51"/><path d="M585,238L619,327L682,272Z" fill="#f8f2ef" stroke="#f8f2ef" stroke-width="1.51"/><path d="M583,440L582,496L665,447Z" fill="#c9c2bd" stroke="#c9c2bd" stroke-width="1.51"/><path d="M74,594L-160,614L220,628Z" fill="#753631" stroke="#753631" stroke-width="1.51"/><path d="M433,591L220,628L531,634Z" fill="#8b6c5e" stroke="#8b6c5e" stroke-width="1.51"/><path d="M582,496L496,517L596,618Z" fill="#a99d96" stroke="#a99d96" stroke-width="1.51"/><path d="M496,517L531,634L596,618Z" fill="#978a82" stroke="#978a82" stroke-width="1.51"/><path d="M578,-42L515,26L598,81Z" fill="#f3ae99" stroke="#f3ae99" stroke-width="1.51"/><path d="M585,238L501,332L619,327Z" fill="#f3e8e1" stroke="#f3e8e1" stroke-width="1.51"/><path d="M501,332L583,440L619,327Z" fill="#e5d9d2" stroke="#e5d9d2" stroke-width="1.51"/><path d="M501,332L517,452L583,440Z" fill="#dacbc2" stroke="#dacbc2" stroke-width="1.51"/><path d="M530,230L501,332L585,238Z" fill="#faebe2" stroke="#faebe2" stroke-width="1.51"/><path d="M562,171L530,230L585,238Z" fill="#ffece1" stroke="#ffece1" stroke-width="1.51"/><path d="M508,178L562,171L598,81Z" fill="#fddac7" stroke="#fddac7" stroke-width="1.51"/><path d="M515,26L508,178L598,81Z" fill="#fcc8b0" stroke="#fcc8b0" stroke-width="1.51"/><path d="M490,-22L515,26L578,-42Z" fill="#ec9c88" stroke="#ec9c88" stroke-width="1.51"/><path d="M508,-114L578,-42L582,-86Z" fill="#e0887b" stroke="#e0887b" stroke-width="1.51"/><path d="M517,452L582,496L583,440Z" fill="#c8bcb5" stroke="#c8bcb5" stroke-width="1.51"/><path d="M517,452L496,517L582,496Z" fill="#bfb0a7" stroke="#bfb0a7" stroke-width="1.51"/><path d="M508,-114L490,-22L578,-42Z" fill="#e38c7c" stroke="#e38c7c" stroke-width="1.51"/><path d="M431,167L508,178L515,26Z" fill="#fbcab2" stroke="#fbcab2" stroke-width="1.51"/><path d="M508,178L530,230L562,171Z" fill="#ffe4d6" stroke="#ffe4d6" stroke-width="1.51"/><path d="M395,81L431,167L515,26Z" fill="#f9ba9c" stroke="#f9ba9c" stroke-width="1.51"/><path d="M501,332L413,354L517,452Z" fill="#e1cabf" stroke="#e1cabf" stroke-width="1.51"/><path d="M431,253L501,332L530,230Z" fill="#f9e3d8" stroke="#f9e3d8" stroke-width="1.51"/><path d="M496,517L433,591L531,634Z" fill="#9a877d" stroke="#9a877d" stroke-width="1.51"/><path d="M508,178L431,253L530,230Z" fill="#fee5d7" stroke="#fee5d7" stroke-width="1.51"/><path d="M431,167L431,253L508,178Z" fill="#fedbc9" stroke="#fedbc9" stroke-width="1.51"/><path d="M441,-121L490,-22L508,-114Z" fill="#db7d6e" stroke="#db7d6e" stroke-width="1.51"/><path d="M412,1L395,81L515,26Z" fill="#f1a387" stroke="#f1a387" stroke-width="1.51"/><path d="M387,427L496,517L517,452Z" fill="#c7afa3" stroke="#c7afa3" stroke-width="1.51"/><path d="M413,354L387,427L517,452Z" fill="#d8bcaf" stroke="#d8bcaf" stroke-width="1.51"/><path d="M490,-22L412,1L515,26Z" fill="#ed9a82" stroke="#ed9a82" stroke-width="1.51"/><path d="M301,573L220,628L433,591Z" fill="#906858" stroke="#906858" stroke-width="1.51"/><path d="M222,-128L348,-86L441,-121Z" fill="#c76052" stroke="#c76052" stroke-width="1.51"/><path d="M387,427L387,525L496,517Z" fill="#bea093" stroke="#bea093" stroke-width="1.51"/><path d="M431,253L413,354L501,332Z" fill="#f1d5c8" stroke="#f1d5c8" stroke-width="1.51"/><path d="M441,-121L412,1L490,-22Z" fill="#e28571" stroke="#e28571" stroke-width="1.51"/><path d="M387,525L433,591L496,517Z" fill="#a88e81" stroke="#a88e81" stroke-width="1.51"/><path d="M395,81L340,152L431,167Z" fill="#fabfa3" stroke="#fabfa3" stroke-width="1.51"/><path d="M357,349L413,354L431,253Z" fill="#efcdbd" stroke="#efcdbd" stroke-width="1.51"/><path d="M346,248L357,349L431,253Z" fill="#f6cfbf" stroke="#f6cfbf" stroke-width="1.51"/><path d="M431,167L346,248L431,253Z" fill="#fed7c6" stroke="#fed7c6" stroke-width="1.51"/><path d="M348,-86L412,1L441,-121Z" fill="#db7663" stroke="#db7663" stroke-width="1.51"/><path d="M340,152L346,248L431,167Z" fill="#fccbb4" stroke="#fccbb4" stroke-width="1.51"/><path d="M387,525L301,573L433,591Z" fill="#9f7d6e" stroke="#9f7d6e" stroke-width="1.51"/><path d="M320,532L301,573L387,525Z" fill="#a67e6e" stroke="#a67e6e" stroke-width="1.51"/><path d="M316,-29L296,76L395,81Z" fill="#ee9575" stroke="#ee9575" stroke-width="1.51"/><path d="M316,-29L395,81L412,1Z" fill="#eb9174" stroke="#eb9174" stroke-width="1.51"/><path d="M348,-86L316,-29L412,1Z" fill="#e07a62" stroke="#e07a62" stroke-width="1.51"/><path d="M357,349L387,427L413,354Z" fill="#e1bdad" stroke="#e1bdad" stroke-width="1.51"/><path d="M357,349L313,428L387,427Z" fill="#dab2a0" stroke="#dab2a0" stroke-width="1.51"/><path d="M387,427L313,428L387,525Z" fill="#c7a190" stroke="#c7a190" stroke-width="1.51"/><path d="M313,428L320,532L387,525Z" fill="#ba9280" stroke="#ba9280" stroke-width="1.51"/><path d="M296,76L340,152L395,81Z" fill="#f6ae8d" stroke="#f6ae8d" stroke-width="1.51"/><path d="M216,165L215,239L340,152Z" fill="#f5b59e" stroke="#f5b59e" stroke-width="1.51"/><path d="M215,239L200,316L346,248Z" fill="#f2bbab" stroke="#f2bbab" stroke-width="1.51"/><path d="M340,152L215,239L346,248Z" fill="#fac4af" stroke="#fac4af" stroke-width="1.51"/><path d="M346,248L200,316L357,349Z" fill="#efbeac" stroke="#efbeac" stroke-width="1.51"/><path d="M200,316L313,428L357,349Z" fill="#e0af9e" stroke="#e0af9e" stroke-width="1.51"/><path d="M313,428L260,442L320,532Z" fill="#c29383" stroke="#c29383" stroke-width="1.51"/><path d="M222,-128L316,-29L348,-86Z" fill="#d15e4e" stroke="#d15e4e" stroke-width="1.51"/><path d="M200,316L260,442L313,428Z" fill="#d6a192" stroke="#d6a192" stroke-width="1.51"/><path d="M260,442L242,503L320,532Z" fill="#b78677" stroke="#b78677" stroke-width="1.51"/><path d="M296,76L216,165L340,152Z" fill="#f4ab8f" stroke="#f4ab8f" stroke-width="1.51"/><path d="M219,-15L296,76L316,-29Z" fill="#e37c62" stroke="#e37c62" stroke-width="1.51"/><path d="M222,-128L219,-15L316,-29Z" fill="#d25e4d" stroke="#d25e4d" stroke-width="1.51"/><path d="M242,503L301,573L320,532Z" fill="#a67869" stroke="#a67869" stroke-width="1.51"/><path d="M200,316L170,388L260,442Z" fill="#d79b8d" stroke="#d79b8d" stroke-width="1.51"/><path d="M219,-15L204,71L296,76Z" fill="#e68366" stroke="#e68366" stroke-width="1.51"/><path d="M204,71L216,165L296,76Z" fill="#ee997d" stroke="#ee997d" stroke-width="1.51"/><path d="M242,503L220,628L301,573Z" fill="#976759" stroke="#976759" stroke-width="1.51"/><path d="M-55,582L-160,614L74,594Z" fill="#6d302f" stroke="#6d302f" stroke-width="1.51"/><path d="M143,517L127,565L220,628Z" fill="#90564b" stroke="#90564b" stroke-width="1.51"/><path d="M143,517L220,628L242,503Z" fill="#9b6457" stroke="#9b6457" stroke-width="1.51"/><path d="M170,388L242,503L260,442Z" fill="#c48c7e" stroke="#c48c7e" stroke-width="1.51"/><path d="M175,66L204,71L219,-15Z" fill="#e2795f" stroke="#e2795f" stroke-width="1.51"/><path d="M135,-140L219,-15L222,-128Z" fill="#c1443e" stroke="#c1443e" stroke-width="1.51"/><path d="M170,388L143,517L242,503Z" fill="#b97d70" stroke="#b97d70" stroke-width="1.51"/><path d="M116,264L200,316L215,239Z" fill="#ecab9d" stroke="#ecab9d" stroke-width="1.51"/><path d="M204,71L175,66L216,165Z" fill="#eb9074" stroke="#eb9074" stroke-width="1.51"/><path d="M175,66L149,177L216,165Z" fill="#ec9980" stroke="#ec9980" stroke-width="1.51"/><path d="M149,177L215,239L216,165Z" fill="#f1aa97" stroke="#f1aa97" stroke-width="1.51"/><path d="M116,0L175,66L219,-15Z" fill="#da6953" stroke="#da6953" stroke-width="1.51"/><path d="M135,-140L116,0L219,-15Z" fill="#ca4b41" stroke="#ca4b41" stroke-width="1.51"/><path d="M127,565L74,594L220,628Z" fill="#844940" stroke="#844940" stroke-width="1.51"/><path d="M149,177L116,264L215,239Z" fill="#f1ac9d" stroke="#f1ac9d" stroke-width="1.51"/><path d="M71,-42L116,0L135,-140Z" fill="#c33f3a" stroke="#c33f3a" stroke-width="1.51"/><path d="M119,363L170,388L200,316Z" fill="#da998c" stroke="#da998c" stroke-width="1.51"/><path d="M116,264L119,363L200,316Z" fill="#e29f92" stroke="#e29f92" stroke-width="1.51"/><path d="M119,363L32,404L143,517Z" fill="#c07b72" stroke="#c07b72" stroke-width="1.51"/><path d="M119,363L143,517L170,388Z" fill="#c68579" stroke="#c68579" stroke-width="1.51"/><path d="M116,0L80,45L175,66Z" fill="#d96a55" stroke="#d96a55" stroke-width="1.51"/><path d="M86,162L149,177L175,66Z" fill="#e8917a" stroke="#e8917a" stroke-width="1.51"/><path d="M80,45L86,162L175,66Z" fill="#e27e66" stroke="#e27e66" stroke-width="1.51"/><path d="M86,162L54,209L116,264Z" fill="#e99c8f" stroke="#e99c8f" stroke-width="1.51"/><path d="M116,264L79,352L119,363Z" fill="#dc958b" stroke="#dc958b" stroke-width="1.51"/><path d="M-14,-146L43,-106L135,-140Z" fill="#a2212d" stroke="#a2212d" stroke-width="1.51"/><path d="M43,-106L71,-42L135,-140Z" fill="#b52d32" stroke="#b52d32" stroke-width="1.51"/><path d="M32,404L77,540L143,517Z" fill="#ab685f" stroke="#ab685f" stroke-width="1.51"/><path d="M86,162L116,264L149,177Z" fill="#ec9f8f" stroke="#ec9f8f" stroke-width="1.51"/><path d="M77,540L127,565L143,517Z" fill="#985950" stroke="#985950" stroke-width="1.51"/><path d="M79,352L32,404L119,363Z" fill="#ce877d" stroke="#ce877d" stroke-width="1.51"/><path d="M77,540L74,594L127,565Z" fill="#8b4c44" stroke="#8b4c44" stroke-width="1.51"/><path d="M54,209L-28,251L79,352Z" fill="#e1948d" stroke="#e1948d" stroke-width="1.51"/><path d="M54,209L79,352L116,264Z" fill="#e59b92" stroke="#e59b92" stroke-width="1.51"/><path d="M71,-42L80,45L116,0Z" fill="#cf5446" stroke="#cf5446" stroke-width="1.51"/><path d="M-57,452L-18,543L32,404Z" fill="#a75f5b" stroke="#a75f5b" stroke-width="1.51"/><path d="M-25,-40L-28,48L71,-42Z" fill="#c33f3a" stroke="#c33f3a" stroke-width="1.51"/><path d="M32,404L-18,543L77,540Z" fill="#a35c56" stroke="#a35c56" stroke-width="1.51"/><path d="M-28,251L-29,358L79,352Z" fill="#d58781" stroke="#d58781" stroke-width="1.51"/><path d="M71,-42L-28,48L80,45Z" fill="#cd5346" stroke="#cd5346" stroke-width="1.51"/><path d="M-60,120L54,209L86,162Z" fill="#e18879" stroke="#e18879" stroke-width="1.51"/><path d="M80,45L-28,48L86,162Z" fill="#da715c" stroke="#da715c" stroke-width="1.51"/><path d="M-28,48L-60,120L86,162Z" fill="#d97261" stroke="#d97261" stroke-width="1.51"/><path d="M-18,543L74,594L77,540Z" fill="#8a4742" stroke="#8a4742" stroke-width="1.51"/><path d="M-29,358L32,404L79,352Z" fill="#ca7f78" stroke="#ca7f78" stroke-width="1.51"/><path d="M-18,543L-55,582L74,594Z" fill="#803c39" stroke="#803c39" stroke-width="1.51"/><path d="M43,-106L-25,-40L71,-42Z" fill="#bb2d32" stroke="#bb2d32" stroke-width="1.51"/><path d="M-60,120L-28,251L54,209Z" fill="#de897e" stroke="#de897e" stroke-width="1.51"/><path d="M-14,-146L-25,-40L43,-106Z" fill="#ac172a" stroke="#ac172a" stroke-width="1.51"/><path d="M-29,358L-57,452L32,404Z" fill="#bb716d" stroke="#bb716d" stroke-width="1.51"/><path d="M-101,262L-128,347L-29,358Z" fill="#be7d7b" stroke="#be7d7b" stroke-width="1.51"/><path d="M-106,421L-57,452L-29,358Z" fill="#af6c6a" stroke="#af6c6a" stroke-width="1.51"/><path d="M-93,-63L-119,57L-28,48Z" fill="#b5433e" stroke="#b5433e" stroke-width="1.51"/><path d="M-60,120L-133,165L-28,251Z" fill="#cd8077" stroke="#cd8077" stroke-width="1.51"/><path d="M-133,165L-101,262L-28,251Z" fill="#cd8885" stroke="#cd8885" stroke-width="1.51"/><path d="M-101,262L-29,358L-28,251Z" fill="#cd8683" stroke="#cd8683" stroke-width="1.51"/><path d="M-93,-63L-28,48L-25,-40Z" fill="#b53737" stroke="#b53737" stroke-width="1.51"/><path d="M-57,452L-124,489L-18,543Z" fill="#915250" stroke="#915250" stroke-width="1.51"/><path d="M-93,-63L-25,-40L-14,-146Z" fill="#a8152a" stroke="#a8152a" stroke-width="1.51"/><path d="M-111,-123L-93,-63L-14,-146Z" fill="#950e27" stroke="#950e27" stroke-width="1.51"/><path d="M-124,489L-55,582L-18,543Z" fill="#804342" stroke="#804342" stroke-width="1.51"/><path d="M-119,57L-60,120L-28,48Z" fill="#c45f51" stroke="#c45f51" stroke-width="1.51"/><path d="M-128,347L-106,421L-29,358Z" fill="#b17170" stroke="#b17170" stroke-width="1.51"/><path d="M-124,489L-160,614L-55,582Z" fill="#6d3738" stroke="#6d3738" stroke-width="1.51"/><path d="M-106,421L-124,489L-57,452Z" fill="#985c5b" stroke="#985c5b" stroke-width="1.51"/><path d="M-119,57L-133,165L-60,120Z" fill="#c06a5e" stroke="#c06a5e" stroke-width="1.51"/><path d="M-111,-123L-119,57L-93,-63Z" fill="#a32730" stroke="#a32730" stroke-width="1.51"/><path d="M-133,165L-128,347L-101,262Z" fill="#c28585" stroke="#c28585" stroke-width="1.51"/><path d="M-128,347L-124,489L-106,421Z" fill="#9e6464" stroke="#9e6464" stroke-width="1.51"/><path d="M-133,165L-119,57L-111,-123Z" fill="#b04842" stroke="#b04842" stroke-width="1.51"/><path d="M-128,347L-160,614L-124,489Z" fill="#854f52" stroke="#854f52" stroke-width="1.51"/><path d="M-133,165L-160,614L-128,347Z" fill="#a46c6e" stroke="#a46c6e" stroke-width="1.51"/></svg>