<svg xmlns="http://www.w3.org/2000/svg" width="40" height="14"><path d="M-99,-131L32,-114L132,-158Z" fill="#e5968f" stroke="#e5968f" stroke-width="1.51"/><path d="M74,130L-22,121L135,174Z" fill="#989898" stroke="#989898" stroke-width="1.51"/><path d="M-22,121L-121,157L135,174Z" fill="#a29792" stroke="#a29792" stroke-width="1.51"/><path d="M74,130L135,174L163,80Z" fill="#7f7f7f" stroke="#7f7f7f" stroke-width="1.51"/><path d="M132,-158L88,-64L164,-27Z" fill="#ba8677" stroke="#ba8677" stroke-width="1.51"/><path d="M77,42L163,80L164,-27Z" fill="#b1b1b1" stroke="#b1b1b1" stroke-width="1.51"/><path d="M88,-64L77,42L164,-27Z" fill="#cfc4bd" stroke="#cfc4bd" stroke-width="1.51"/><path d="M77,42L74,130L163,80Z" fill="#adadad" stroke="#adadad" stroke-width="1.51"/><path d="M32,-114L88,-64L132,-158Z" fill="#cf8b80" stroke="#cf8b80" stroke-width="1.51"/><path d="M-99,-131L1,-106L32,-114Z" fill="#e58d79" stroke="#e58d79" stroke-width="1.51"/><path d="M-26,-21L-4,53L77,42Z" fill="#f7f5f4" stroke="#f7f5f4" stroke-width="1.51"/><path d="M-4,53L74,130L77,42Z" fill="#d2d2d2" stroke="#d2d2d2" stroke-width="1.51"/><path d="M32,-114L1,-106L88,-64Z" fill="#ecae9f" stroke="#ecae9f" stroke-width="1.51"/><path d="M1,-106L-26,-21L88,-64Z" fill="#fdd2c0" stroke="#fdd2c0" stroke-width="1.51"/><path d="M-26,-21L77,42L88,-64Z" fill="#f4e9e3" stroke="#f4e9e3" stroke-width="1.51"/><path d="M-4,53L-22,121L74,130Z" fill="#cbc9c8" stroke="#cbc9c8" stroke-width="1.51"/><path d="M-26,-21L-107,49L-4,53Z" fill="#f5cebd" stroke="#f5cebd" stroke-width="1.51"/><path d="M-81,-71L-26,-21L1,-106Z" fill="#f6b190" stroke="#f6b190" stroke-width="1.51"/><path d="M-99,-131L-81,-71L1,-106Z" fill="#e27b60" stroke="#e27b60" stroke-width="1.51"/><path d="M-107,49L-22,121L-4,53Z" fill="#ddb8a8" stroke="#ddb8a8" stroke-width="1.51"/><path d="M-107,49L-121,157L-22,121Z" fill="#b97e71" stroke="#b97e71" stroke-width="1.51"/><path d="M-81,-71L-107,49L-26,-21Z" fill="#f6b5a0" stroke="#f6b5a0" stroke-width="1.51"/><path d="M-99,-131L-107,49L-81,-71Z" fill="#e6886f" stroke="#e6886f" stroke-width="1.51"/><path d="M-121,157L-107,49L-99,-131Z" fill="#e2988f" stroke="#e2988f" stroke-width="1.51"/></svg>